<svg xmlns="http://www.w3.org/2000/svg" xmlns:xlink="http://www.w3.org/1999/xlink" width="500" zoomAndPan="magnify" viewBox="0 0 375 374.999991" height="500" preserveAspectRatio="xMidYMid meet" version="1.0"><defs><g/><clipPath id="93f49563c6"><path d="M 5.445312 5.445312 L 369.550781 5.445312 L 369.550781 369.550781 L 5.445312 369.550781 Z M 5.445312 5.445312 " clip-rule="nonzero"/></clipPath><clipPath id="918992c9a9"><path d="M 193.546875 8.582031 L 217.851562 43.082031 C 221.351562 48.054688 227.90625 49.808594 233.425781 47.257812 L 271.722656 29.53125 C 273.90625 28.519531 276.441406 28.632812 278.527344 29.835938 C 280.609375 31.039062 281.976562 33.179688 282.195312 35.578125 L 285.992188 77.605469 C 286.539062 83.660156 291.339844 88.460938 297.394531 89.007812 L 339.421875 92.804688 C 341.820312 93.023438 343.960938 94.390625 345.164062 96.472656 C 346.367188 98.558594 346.480469 101.09375 345.46875 103.277344 L 327.742188 141.574219 C 325.1875 147.09375 326.945312 153.648438 331.917969 157.148438 L 366.417969 181.453125 C 368.382812 182.839844 369.554688 185.09375 369.554688 187.5 C 369.554688 189.90625 368.382812 192.160156 366.417969 193.546875 L 331.917969 217.851562 C 326.945312 221.351562 325.1875 227.90625 327.742188 233.425781 L 345.46875 271.722656 C 346.480469 273.90625 346.367188 276.441406 345.164062 278.527344 C 343.960938 280.609375 341.820312 281.976562 339.421875 282.195312 L 297.394531 285.992188 C 291.339844 286.539062 286.539062 291.339844 285.992188 297.394531 L 282.195312 339.421875 C 281.976562 341.820312 280.609375 343.960938 278.527344 345.164062 C 276.441406 346.367188 273.90625 346.480469 271.722656 345.46875 L 233.425781 327.742188 C 227.90625 325.1875 221.351562 326.945312 217.851562 331.917969 L 193.546875 366.417969 C 192.160156 368.382812 189.90625 369.554688 187.5 369.554688 C 185.09375 369.554688 182.839844 368.382812 181.453125 366.417969 L 157.148438 331.917969 C 153.648438 326.945312 147.09375 325.1875 141.574219 327.742188 L 103.277344 345.46875 C 101.09375 346.480469 98.558594 346.367188 96.472656 345.164062 C 94.390625 343.960938 93.023438 341.820312 92.804688 339.421875 L 89.007812 297.394531 C 88.460938 291.339844 83.660156 286.539062 77.605469 285.992188 L 35.578125 282.195312 C 33.179688 281.976562 31.039062 280.609375 29.835938 278.527344 C 28.632812 276.441406 28.519531 273.90625 29.53125 271.722656 L 47.257812 233.425781 C 49.808594 227.90625 48.054688 221.351562 43.082031 217.851562 L 8.582031 193.546875 C 6.617188 192.160156 5.445312 189.90625 5.445312 187.5 C 5.445312 185.09375 6.617188 182.839844 8.582031 181.453125 L 43.082031 157.148438 C 48.054688 153.648438 49.808594 147.09375 47.257812 141.574219 L 29.53125 103.277344 C 28.519531 101.09375 28.632812 98.558594 29.835938 96.472656 C 31.039062 94.390625 33.179688 93.023438 35.578125 92.804688 L 77.605469 89.007812 C 83.660156 88.460938 88.460938 83.660156 89.007812 77.605469 L 92.804688 35.578125 C 93.023438 33.179688 94.390625 31.039062 96.472656 29.835938 C 98.558594 28.632812 101.09375 28.519531 103.277344 29.53125 L 141.574219 47.257812 C 147.09375 49.808594 153.648438 48.054688 157.148438 43.082031 L 181.453125 8.582031 C 182.839844 6.617188 185.09375 5.445312 187.5 5.445312 C 189.90625 5.445312 192.160156 6.617188 193.546875 8.582031 Z M 193.546875 8.582031 " clip-rule="nonzero"/></clipPath><linearGradient x1="3.718487" gradientTransform="matrix(1.464844, 0, 0, 1.464844, 0.0000045, 0)" y1="128" x2="252.280988" gradientUnits="userSpaceOnUse" y2="128" id="8f1bd7bf6e"><stop stop-opacity="1" stop-color="rgb(54.899597%, 32.199097%, 99.998474%)" offset="0"/><stop stop-opacity="1" stop-color="rgb(55.075073%, 32.295227%, 99.725342%)" offset="0.00390625"/><stop stop-opacity="1" stop-color="rgb(55.252075%, 32.392883%, 99.453735%)" offset="0.0078125"/><stop stop-opacity="1" stop-color="rgb(55.427551%, 32.489014%, 99.180603%)" offset="0.0117188"/><stop stop-opacity="1" stop-color="rgb(55.604553%, 32.585144%, 98.908997%)" offset="0.015625"/><stop stop-opacity="1" stop-color="rgb(55.780029%, 32.681274%, 98.635864%)" offset="0.0195313"/><stop stop-opacity="1" stop-color="rgb(55.957031%, 32.778931%, 98.362732%)" offset="0.0234375"/><stop stop-opacity="1" stop-color="rgb(56.132507%, 32.875061%, 98.0896%)" offset="0.0273438"/><stop stop-opacity="1" stop-color="rgb(56.307983%, 32.971191%, 97.817993%)" offset="0.03125"/><stop stop-opacity="1" stop-color="rgb(56.483459%, 33.067322%, 97.544861%)" offset="0.0351563"/><stop stop-opacity="1" stop-color="rgb(56.660461%, 33.163452%, 97.273254%)" offset="0.0390625"/><stop stop-opacity="1" stop-color="rgb(56.835938%, 33.259583%, 97.000122%)" offset="0.0429688"/><stop stop-opacity="1" stop-color="rgb(57.012939%, 33.357239%, 96.72699%)" offset="0.046875"/><stop stop-opacity="1" stop-color="rgb(57.188416%, 33.453369%, 96.453857%)" offset="0.0507813"/><stop stop-opacity="1" stop-color="rgb(57.365417%, 33.5495%, 96.182251%)" offset="0.0546875"/><stop stop-opacity="1" stop-color="rgb(57.540894%, 33.64563%, 95.909119%)" offset="0.0585938"/><stop stop-opacity="1" stop-color="rgb(57.717896%, 33.743286%, 95.635986%)" offset="0.0625"/><stop stop-opacity="1" stop-color="rgb(57.893372%, 33.839417%, 95.362854%)" offset="0.0664062"/><stop stop-opacity="1" stop-color="rgb(58.070374%, 33.935547%, 95.091248%)" offset="0.0703125"/><stop stop-opacity="1" stop-color="rgb(58.24585%, 34.031677%, 94.818115%)" offset="0.0742188"/><stop stop-opacity="1" stop-color="rgb(58.422852%, 34.129333%, 94.546509%)" offset="0.078125"/><stop stop-opacity="1" stop-color="rgb(58.598328%, 34.225464%, 94.273376%)" offset="0.0820312"/><stop stop-opacity="1" stop-color="rgb(58.77533%, 34.321594%, 94.000244%)" offset="0.0859375"/><stop stop-opacity="1" stop-color="rgb(58.950806%, 34.417725%, 93.727112%)" offset="0.0898438"/><stop stop-opacity="1" stop-color="rgb(59.127808%, 34.515381%, 93.455505%)" offset="0.09375"/><stop stop-opacity="1" stop-color="rgb(59.303284%, 34.611511%, 93.182373%)" offset="0.0976562"/><stop stop-opacity="1" stop-color="rgb(59.480286%, 34.707642%, 92.910767%)" offset="0.101562"/><stop stop-opacity="1" stop-color="rgb(59.655762%, 34.803772%, 92.637634%)" offset="0.105469"/><stop stop-opacity="1" stop-color="rgb(59.832764%, 34.901428%, 92.364502%)" offset="0.109375"/><stop stop-opacity="1" stop-color="rgb(60.00824%, 34.997559%, 92.09137%)" offset="0.113281"/><stop stop-opacity="1" stop-color="rgb(60.183716%, 35.093689%, 91.819763%)" offset="0.117188"/><stop stop-opacity="1" stop-color="rgb(60.359192%, 35.189819%, 91.546631%)" offset="0.121094"/><stop stop-opacity="1" stop-color="rgb(60.536194%, 35.287476%, 91.273499%)" offset="0.125"/><stop stop-opacity="1" stop-color="rgb(60.71167%, 35.383606%, 91.000366%)" offset="0.128906"/><stop stop-opacity="1" stop-color="rgb(60.888672%, 35.479736%, 90.72876%)" offset="0.132812"/><stop stop-opacity="1" stop-color="rgb(61.064148%, 35.575867%, 90.455627%)" offset="0.136719"/><stop stop-opacity="1" stop-color="rgb(61.24115%, 35.671997%, 90.184021%)" offset="0.140625"/><stop stop-opacity="1" stop-color="rgb(61.416626%, 35.768127%, 89.910889%)" offset="0.144531"/><stop stop-opacity="1" stop-color="rgb(61.593628%, 35.865784%, 89.637756%)" offset="0.148437"/><stop stop-opacity="1" stop-color="rgb(61.769104%, 35.961914%, 89.364624%)" offset="0.152344"/><stop stop-opacity="1" stop-color="rgb(61.946106%, 36.058044%, 89.093018%)" offset="0.15625"/><stop stop-opacity="1" stop-color="rgb(62.121582%, 36.154175%, 88.819885%)" offset="0.160156"/><stop stop-opacity="1" stop-color="rgb(62.298584%, 36.251831%, 88.548279%)" offset="0.164062"/><stop stop-opacity="1" stop-color="rgb(62.47406%, 36.347961%, 88.275146%)" offset="0.167969"/><stop stop-opacity="1" stop-color="rgb(62.651062%, 36.444092%, 88.002014%)" offset="0.171875"/><stop stop-opacity="1" stop-color="rgb(62.826538%, 36.540222%, 87.728882%)" offset="0.175781"/><stop stop-opacity="1" stop-color="rgb(63.00354%, 36.637878%, 87.457275%)" offset="0.179687"/><stop stop-opacity="1" stop-color="rgb(63.179016%, 36.734009%, 87.184143%)" offset="0.183594"/><stop stop-opacity="1" stop-color="rgb(63.356018%, 36.830139%, 86.911011%)" offset="0.1875"/><stop stop-opacity="1" stop-color="rgb(63.531494%, 36.92627%, 86.637878%)" offset="0.191406"/><stop stop-opacity="1" stop-color="rgb(63.708496%, 37.023926%, 86.366272%)" offset="0.195312"/><stop stop-opacity="1" stop-color="rgb(63.883972%, 37.120056%, 86.09314%)" offset="0.199219"/><stop stop-opacity="1" stop-color="rgb(64.059448%, 37.216187%, 85.821533%)" offset="0.203125"/><stop stop-opacity="1" stop-color="rgb(64.234924%, 37.312317%, 85.548401%)" offset="0.207031"/><stop stop-opacity="1" stop-color="rgb(64.411926%, 37.409973%, 85.275269%)" offset="0.210937"/><stop stop-opacity="1" stop-color="rgb(64.587402%, 37.506104%, 85.002136%)" offset="0.214844"/><stop stop-opacity="1" stop-color="rgb(64.764404%, 37.602234%, 84.73053%)" offset="0.21875"/><stop stop-opacity="1" stop-color="rgb(64.93988%, 37.698364%, 84.457397%)" offset="0.222656"/><stop stop-opacity="1" stop-color="rgb(65.116882%, 37.796021%, 84.185791%)" offset="0.226562"/><stop stop-opacity="1" stop-color="rgb(65.292358%, 37.892151%, 83.912659%)" offset="0.230469"/><stop stop-opacity="1" stop-color="rgb(65.46936%, 37.988281%, 83.639526%)" offset="0.234375"/><stop stop-opacity="1" stop-color="rgb(65.644836%, 38.084412%, 83.366394%)" offset="0.238281"/><stop stop-opacity="1" stop-color="rgb(65.821838%, 38.180542%, 83.094788%)" offset="0.242187"/><stop stop-opacity="1" stop-color="rgb(65.997314%, 38.276672%, 82.821655%)" offset="0.246094"/><stop stop-opacity="1" stop-color="rgb(66.174316%, 38.374329%, 82.548523%)" offset="0.25"/><stop stop-opacity="1" stop-color="rgb(66.349792%, 38.470459%, 82.275391%)" offset="0.253906"/><stop stop-opacity="1" stop-color="rgb(66.526794%, 38.566589%, 82.003784%)" offset="0.257812"/><stop stop-opacity="1" stop-color="rgb(66.702271%, 38.66272%, 81.730652%)" offset="0.261719"/><stop stop-opacity="1" stop-color="rgb(66.879272%, 38.760376%, 81.459045%)" offset="0.265625"/><stop stop-opacity="1" stop-color="rgb(67.054749%, 38.856506%, 81.185913%)" offset="0.269531"/><stop stop-opacity="1" stop-color="rgb(67.23175%, 38.952637%, 80.912781%)" offset="0.273437"/><stop stop-opacity="1" stop-color="rgb(67.407227%, 39.048767%, 80.639648%)" offset="0.277344"/><stop stop-opacity="1" stop-color="rgb(67.584229%, 39.146423%, 80.368042%)" offset="0.28125"/><stop stop-opacity="1" stop-color="rgb(67.759705%, 39.242554%, 80.09491%)" offset="0.285156"/><stop stop-opacity="1" stop-color="rgb(67.936707%, 39.338684%, 79.823303%)" offset="0.289062"/><stop stop-opacity="1" stop-color="rgb(68.112183%, 39.434814%, 79.550171%)" offset="0.292969"/><stop stop-opacity="1" stop-color="rgb(68.287659%, 39.532471%, 79.277039%)" offset="0.296875"/><stop stop-opacity="1" stop-color="rgb(68.463135%, 39.628601%, 79.003906%)" offset="0.300781"/><stop stop-opacity="1" stop-color="rgb(68.640137%, 39.724731%, 78.7323%)" offset="0.304687"/><stop stop-opacity="1" stop-color="rgb(68.815613%, 39.820862%, 78.459167%)" offset="0.308594"/><stop stop-opacity="1" stop-color="rgb(68.992615%, 39.918518%, 78.186035%)" offset="0.3125"/><stop stop-opacity="1" stop-color="rgb(69.168091%, 40.014648%, 77.912903%)" offset="0.316406"/><stop stop-opacity="1" stop-color="rgb(69.345093%, 40.110779%, 77.641296%)" offset="0.320312"/><stop stop-opacity="1" stop-color="rgb(69.520569%, 40.206909%, 77.368164%)" offset="0.324219"/><stop stop-opacity="1" stop-color="rgb(69.697571%, 40.304565%, 77.096558%)" offset="0.328125"/><stop stop-opacity="1" stop-color="rgb(69.873047%, 40.400696%, 76.823425%)" offset="0.332031"/><stop stop-opacity="1" stop-color="rgb(70.050049%, 40.496826%, 76.550293%)" offset="0.335937"/><stop stop-opacity="1" stop-color="rgb(70.225525%, 40.592957%, 76.277161%)" offset="0.339844"/><stop stop-opacity="1" stop-color="rgb(70.402527%, 40.690613%, 76.005554%)" offset="0.34375"/><stop stop-opacity="1" stop-color="rgb(70.578003%, 40.786743%, 75.732422%)" offset="0.347656"/><stop stop-opacity="1" stop-color="rgb(70.755005%, 40.882874%, 75.460815%)" offset="0.351562"/><stop stop-opacity="1" stop-color="rgb(70.930481%, 40.979004%, 75.187683%)" offset="0.355469"/><stop stop-opacity="1" stop-color="rgb(71.107483%, 41.075134%, 74.914551%)" offset="0.359375"/><stop stop-opacity="1" stop-color="rgb(71.282959%, 41.171265%, 74.641418%)" offset="0.363281"/><stop stop-opacity="1" stop-color="rgb(71.459961%, 41.268921%, 74.369812%)" offset="0.367187"/><stop stop-opacity="1" stop-color="rgb(71.635437%, 41.365051%, 74.09668%)" offset="0.371094"/><stop stop-opacity="1" stop-color="rgb(71.812439%, 41.461182%, 73.823547%)" offset="0.375"/><stop stop-opacity="1" stop-color="rgb(71.987915%, 41.557312%, 73.550415%)" offset="0.378906"/><stop stop-opacity="1" stop-color="rgb(72.163391%, 41.654968%, 73.278809%)" offset="0.382812"/><stop stop-opacity="1" stop-color="rgb(72.338867%, 41.751099%, 73.005676%)" offset="0.386719"/><stop stop-opacity="1" stop-color="rgb(72.515869%, 41.847229%, 72.73407%)" offset="0.390625"/><stop stop-opacity="1" stop-color="rgb(72.691345%, 41.943359%, 72.460938%)" offset="0.394531"/><stop stop-opacity="1" stop-color="rgb(72.868347%, 42.041016%, 72.187805%)" offset="0.398437"/><stop stop-opacity="1" stop-color="rgb(73.043823%, 42.137146%, 71.914673%)" offset="0.402344"/><stop stop-opacity="1" stop-color="rgb(73.220825%, 42.233276%, 71.643066%)" offset="0.40625"/><stop stop-opacity="1" stop-color="rgb(73.396301%, 42.329407%, 71.369934%)" offset="0.410156"/><stop stop-opacity="1" stop-color="rgb(73.573303%, 42.427063%, 71.098328%)" offset="0.414062"/><stop stop-opacity="1" stop-color="rgb(73.748779%, 42.523193%, 70.825195%)" offset="0.417969"/><stop stop-opacity="1" stop-color="rgb(73.925781%, 42.619324%, 70.552063%)" offset="0.421875"/><stop stop-opacity="1" stop-color="rgb(74.101257%, 42.715454%, 70.278931%)" offset="0.425781"/><stop stop-opacity="1" stop-color="rgb(74.278259%, 42.81311%, 70.007324%)" offset="0.429687"/><stop stop-opacity="1" stop-color="rgb(74.453735%, 42.909241%, 69.734192%)" offset="0.433594"/><stop stop-opacity="1" stop-color="rgb(74.630737%, 43.005371%, 69.46106%)" offset="0.4375"/><stop stop-opacity="1" stop-color="rgb(74.806213%, 43.101501%, 69.187927%)" offset="0.441406"/><stop stop-opacity="1" stop-color="rgb(74.983215%, 43.199158%, 68.916321%)" offset="0.445312"/><stop stop-opacity="1" stop-color="rgb(75.158691%, 43.295288%, 68.643188%)" offset="0.449219"/><stop stop-opacity="1" stop-color="rgb(75.335693%, 43.391418%, 68.371582%)" offset="0.453125"/><stop stop-opacity="1" stop-color="rgb(75.511169%, 43.487549%, 68.09845%)" offset="0.457031"/><stop stop-opacity="1" stop-color="rgb(75.688171%, 43.583679%, 67.825317%)" offset="0.460937"/><stop stop-opacity="1" stop-color="rgb(75.863647%, 43.67981%, 67.552185%)" offset="0.464844"/><stop stop-opacity="1" stop-color="rgb(76.039124%, 43.777466%, 67.280579%)" offset="0.46875"/><stop stop-opacity="1" stop-color="rgb(76.2146%, 43.873596%, 67.007446%)" offset="0.472656"/><stop stop-opacity="1" stop-color="rgb(76.391602%, 43.969727%, 66.73584%)" offset="0.476562"/><stop stop-opacity="1" stop-color="rgb(76.567078%, 44.065857%, 66.462708%)" offset="0.480469"/><stop stop-opacity="1" stop-color="rgb(76.74408%, 44.163513%, 66.189575%)" offset="0.484375"/><stop stop-opacity="1" stop-color="rgb(76.919556%, 44.259644%, 65.916443%)" offset="0.488281"/><stop stop-opacity="1" stop-color="rgb(77.096558%, 44.355774%, 65.644836%)" offset="0.492187"/><stop stop-opacity="1" stop-color="rgb(77.272034%, 44.451904%, 65.371704%)" offset="0.496094"/><stop stop-opacity="1" stop-color="rgb(77.449036%, 44.549561%, 65.098572%)" offset="0.5"/><stop stop-opacity="1" stop-color="rgb(77.624512%, 44.645691%, 64.825439%)" offset="0.503906"/><stop stop-opacity="1" stop-color="rgb(77.801514%, 44.741821%, 64.553833%)" offset="0.507812"/><stop stop-opacity="1" stop-color="rgb(77.97699%, 44.837952%, 64.280701%)" offset="0.511719"/><stop stop-opacity="1" stop-color="rgb(78.153992%, 44.935608%, 64.009094%)" offset="0.515625"/><stop stop-opacity="1" stop-color="rgb(78.329468%, 45.031738%, 63.735962%)" offset="0.519531"/><stop stop-opacity="1" stop-color="rgb(78.50647%, 45.127869%, 63.46283%)" offset="0.523438"/><stop stop-opacity="1" stop-color="rgb(78.681946%, 45.223999%, 63.189697%)" offset="0.527344"/><stop stop-opacity="1" stop-color="rgb(78.858948%, 45.321655%, 62.918091%)" offset="0.53125"/><stop stop-opacity="1" stop-color="rgb(79.034424%, 45.417786%, 62.644958%)" offset="0.535156"/><stop stop-opacity="1" stop-color="rgb(79.211426%, 45.513916%, 62.373352%)" offset="0.539062"/><stop stop-opacity="1" stop-color="rgb(79.386902%, 45.610046%, 62.10022%)" offset="0.542969"/><stop stop-opacity="1" stop-color="rgb(79.563904%, 45.707703%, 61.827087%)" offset="0.546875"/><stop stop-opacity="1" stop-color="rgb(79.73938%, 45.803833%, 61.553955%)" offset="0.550781"/><stop stop-opacity="1" stop-color="rgb(79.914856%, 45.899963%, 61.282349%)" offset="0.554688"/><stop stop-opacity="1" stop-color="rgb(80.090332%, 45.996094%, 61.009216%)" offset="0.558594"/><stop stop-opacity="1" stop-color="rgb(80.267334%, 46.092224%, 60.736084%)" offset="0.5625"/><stop stop-opacity="1" stop-color="rgb(80.44281%, 46.188354%, 60.462952%)" offset="0.566406"/><stop stop-opacity="1" stop-color="rgb(80.619812%, 46.286011%, 60.191345%)" offset="0.570312"/><stop stop-opacity="1" stop-color="rgb(80.795288%, 46.382141%, 59.918213%)" offset="0.574219"/><stop stop-opacity="1" stop-color="rgb(80.97229%, 46.478271%, 59.646606%)" offset="0.578125"/><stop stop-opacity="1" stop-color="rgb(81.147766%, 46.574402%, 59.373474%)" offset="0.582031"/><stop stop-opacity="1" stop-color="rgb(81.324768%, 46.672058%, 59.100342%)" offset="0.585938"/><stop stop-opacity="1" stop-color="rgb(81.500244%, 46.768188%, 58.827209%)" offset="0.589844"/><stop stop-opacity="1" stop-color="rgb(81.677246%, 46.864319%, 58.555603%)" offset="0.59375"/><stop stop-opacity="1" stop-color="rgb(81.852722%, 46.960449%, 58.282471%)" offset="0.597656"/><stop stop-opacity="1" stop-color="rgb(82.029724%, 47.058105%, 58.010864%)" offset="0.601562"/><stop stop-opacity="1" stop-color="rgb(82.2052%, 47.154236%, 57.737732%)" offset="0.605469"/><stop stop-opacity="1" stop-color="rgb(82.382202%, 47.250366%, 57.4646%)" offset="0.609375"/><stop stop-opacity="1" stop-color="rgb(82.557678%, 47.346497%, 57.191467%)" offset="0.613281"/><stop stop-opacity="1" stop-color="rgb(82.73468%, 47.444153%, 56.919861%)" offset="0.617188"/><stop stop-opacity="1" stop-color="rgb(82.910156%, 47.540283%, 56.646729%)" offset="0.621094"/><stop stop-opacity="1" stop-color="rgb(83.087158%, 47.636414%, 56.375122%)" offset="0.625"/><stop stop-opacity="1" stop-color="rgb(83.262634%, 47.732544%, 56.10199%)" offset="0.628906"/><stop stop-opacity="1" stop-color="rgb(83.439636%, 47.8302%, 55.828857%)" offset="0.632812"/><stop stop-opacity="1" stop-color="rgb(83.615112%, 47.926331%, 55.555725%)" offset="0.636719"/><stop stop-opacity="1" stop-color="rgb(83.790588%, 48.022461%, 55.284119%)" offset="0.640625"/><stop stop-opacity="1" stop-color="rgb(83.966064%, 48.118591%, 55.010986%)" offset="0.644531"/><stop stop-opacity="1" stop-color="rgb(84.143066%, 48.216248%, 54.737854%)" offset="0.648438"/><stop stop-opacity="1" stop-color="rgb(84.318542%, 48.312378%, 54.464722%)" offset="0.652344"/><stop stop-opacity="1" stop-color="rgb(84.495544%, 48.408508%, 54.193115%)" offset="0.65625"/><stop stop-opacity="1" stop-color="rgb(84.671021%, 48.504639%, 53.919983%)" offset="0.660156"/><stop stop-opacity="1" stop-color="rgb(84.848022%, 48.600769%, 53.648376%)" offset="0.664062"/><stop stop-opacity="1" stop-color="rgb(85.023499%, 48.696899%, 53.375244%)" offset="0.667969"/><stop stop-opacity="1" stop-color="rgb(85.2005%, 48.794556%, 53.102112%)" offset="0.671875"/><stop stop-opacity="1" stop-color="rgb(85.375977%, 48.890686%, 52.828979%)" offset="0.675781"/><stop stop-opacity="1" stop-color="rgb(85.552979%, 48.986816%, 52.557373%)" offset="0.679688"/><stop stop-opacity="1" stop-color="rgb(85.728455%, 49.082947%, 52.284241%)" offset="0.683594"/><stop stop-opacity="1" stop-color="rgb(85.905457%, 49.180603%, 52.012634%)" offset="0.6875"/><stop stop-opacity="1" stop-color="rgb(86.080933%, 49.276733%, 51.739502%)" offset="0.691406"/><stop stop-opacity="1" stop-color="rgb(86.257935%, 49.372864%, 51.46637%)" offset="0.695312"/><stop stop-opacity="1" stop-color="rgb(86.433411%, 49.468994%, 51.193237%)" offset="0.699219"/><stop stop-opacity="1" stop-color="rgb(86.610413%, 49.56665%, 50.921631%)" offset="0.703125"/><stop stop-opacity="1" stop-color="rgb(86.785889%, 49.662781%, 50.648499%)" offset="0.707031"/><stop stop-opacity="1" stop-color="rgb(86.962891%, 49.758911%, 50.375366%)" offset="0.710938"/><stop stop-opacity="1" stop-color="rgb(87.138367%, 49.855042%, 50.102234%)" offset="0.714844"/><stop stop-opacity="1" stop-color="rgb(87.315369%, 49.952698%, 49.830627%)" offset="0.71875"/><stop stop-opacity="1" stop-color="rgb(87.490845%, 50.048828%, 49.557495%)" offset="0.722656"/><stop stop-opacity="1" stop-color="rgb(87.667847%, 50.144958%, 49.285889%)" offset="0.726562"/><stop stop-opacity="1" stop-color="rgb(87.843323%, 50.241089%, 49.012756%)" offset="0.730469"/><stop stop-opacity="1" stop-color="rgb(88.018799%, 50.338745%, 48.739624%)" offset="0.734375"/><stop stop-opacity="1" stop-color="rgb(88.194275%, 50.434875%, 48.466492%)" offset="0.738281"/><stop stop-opacity="1" stop-color="rgb(88.371277%, 50.531006%, 48.194885%)" offset="0.742188"/><stop stop-opacity="1" stop-color="rgb(88.546753%, 50.627136%, 47.921753%)" offset="0.746094"/><stop stop-opacity="1" stop-color="rgb(88.723755%, 50.724792%, 47.650146%)" offset="0.75"/><stop stop-opacity="1" stop-color="rgb(88.899231%, 50.820923%, 47.377014%)" offset="0.753906"/><stop stop-opacity="1" stop-color="rgb(89.076233%, 50.917053%, 47.103882%)" offset="0.757812"/><stop stop-opacity="1" stop-color="rgb(89.251709%, 51.013184%, 46.83075%)" offset="0.761719"/><stop stop-opacity="1" stop-color="rgb(89.428711%, 51.11084%, 46.559143%)" offset="0.765625"/><stop stop-opacity="1" stop-color="rgb(89.604187%, 51.20697%, 46.286011%)" offset="0.769531"/><stop stop-opacity="1" stop-color="rgb(89.781189%, 51.303101%, 46.012878%)" offset="0.773438"/><stop stop-opacity="1" stop-color="rgb(89.956665%, 51.399231%, 45.739746%)" offset="0.777344"/><stop stop-opacity="1" stop-color="rgb(90.133667%, 51.495361%, 45.46814%)" offset="0.78125"/><stop stop-opacity="1" stop-color="rgb(90.309143%, 51.591492%, 45.195007%)" offset="0.785156"/><stop stop-opacity="1" stop-color="rgb(90.486145%, 51.689148%, 44.923401%)" offset="0.789062"/><stop stop-opacity="1" stop-color="rgb(90.661621%, 51.785278%, 44.650269%)" offset="0.792969"/><stop stop-opacity="1" stop-color="rgb(90.838623%, 51.881409%, 44.377136%)" offset="0.796875"/><stop stop-opacity="1" stop-color="rgb(91.014099%, 51.977539%, 44.104004%)" offset="0.800781"/><stop stop-opacity="1" stop-color="rgb(91.191101%, 52.075195%, 43.832397%)" offset="0.804688"/><stop stop-opacity="1" stop-color="rgb(91.366577%, 52.171326%, 43.559265%)" offset="0.808594"/><stop stop-opacity="1" stop-color="rgb(91.543579%, 52.267456%, 43.287659%)" offset="0.8125"/><stop stop-opacity="1" stop-color="rgb(91.719055%, 52.363586%, 43.014526%)" offset="0.816406"/><stop stop-opacity="1" stop-color="rgb(91.894531%, 52.461243%, 42.741394%)" offset="0.820312"/><stop stop-opacity="1" stop-color="rgb(92.070007%, 52.557373%, 42.468262%)" offset="0.824219"/><stop stop-opacity="1" stop-color="rgb(92.247009%, 52.653503%, 42.196655%)" offset="0.828125"/><stop stop-opacity="1" stop-color="rgb(92.422485%, 52.749634%, 41.923523%)" offset="0.832031"/><stop stop-opacity="1" stop-color="rgb(92.599487%, 52.84729%, 41.650391%)" offset="0.835938"/><stop stop-opacity="1" stop-color="rgb(92.774963%, 52.94342%, 41.377258%)" offset="0.839844"/><stop stop-opacity="1" stop-color="rgb(92.951965%, 53.039551%, 41.105652%)" offset="0.84375"/><stop stop-opacity="1" stop-color="rgb(93.127441%, 53.135681%, 40.83252%)" offset="0.847656"/><stop stop-opacity="1" stop-color="rgb(93.304443%, 53.233337%, 40.560913%)" offset="0.851562"/><stop stop-opacity="1" stop-color="rgb(93.479919%, 53.329468%, 40.287781%)" offset="0.855469"/><stop stop-opacity="1" stop-color="rgb(93.656921%, 53.425598%, 40.014648%)" offset="0.859375"/><stop stop-opacity="1" stop-color="rgb(93.832397%, 53.521729%, 39.741516%)" offset="0.863281"/><stop stop-opacity="1" stop-color="rgb(94.009399%, 53.619385%, 39.46991%)" offset="0.867188"/><stop stop-opacity="1" stop-color="rgb(94.184875%, 53.715515%, 39.196777%)" offset="0.871094"/><stop stop-opacity="1" stop-color="rgb(94.361877%, 53.811646%, 38.925171%)" offset="0.875"/><stop stop-opacity="1" stop-color="rgb(94.537354%, 53.907776%, 38.652039%)" offset="0.878906"/><stop stop-opacity="1" stop-color="rgb(94.714355%, 54.003906%, 38.378906%)" offset="0.882812"/><stop stop-opacity="1" stop-color="rgb(94.889832%, 54.100037%, 38.105774%)" offset="0.886719"/><stop stop-opacity="1" stop-color="rgb(95.066833%, 54.197693%, 37.834167%)" offset="0.890625"/><stop stop-opacity="1" stop-color="rgb(95.24231%, 54.293823%, 37.561035%)" offset="0.894531"/><stop stop-opacity="1" stop-color="rgb(95.419312%, 54.389954%, 37.287903%)" offset="0.898438"/><stop stop-opacity="1" stop-color="rgb(95.594788%, 54.486084%, 37.014771%)" offset="0.902344"/><stop stop-opacity="1" stop-color="rgb(95.770264%, 54.58374%, 36.743164%)" offset="0.90625"/><stop stop-opacity="1" stop-color="rgb(95.94574%, 54.679871%, 36.470032%)" offset="0.910156"/><stop stop-opacity="1" stop-color="rgb(96.122742%, 54.776001%, 36.198425%)" offset="0.914062"/><stop stop-opacity="1" stop-color="rgb(96.298218%, 54.872131%, 35.925293%)" offset="0.917969"/><stop stop-opacity="1" stop-color="rgb(96.47522%, 54.969788%, 35.652161%)" offset="0.921875"/><stop stop-opacity="1" stop-color="rgb(96.650696%, 55.065918%, 35.379028%)" offset="0.925781"/><stop stop-opacity="1" stop-color="rgb(96.827698%, 55.162048%, 35.107422%)" offset="0.929688"/><stop stop-opacity="1" stop-color="rgb(97.003174%, 55.258179%, 34.83429%)" offset="0.933594"/><stop stop-opacity="1" stop-color="rgb(97.180176%, 55.355835%, 34.562683%)" offset="0.9375"/><stop stop-opacity="1" stop-color="rgb(97.355652%, 55.451965%, 34.289551%)" offset="0.941406"/><stop stop-opacity="1" stop-color="rgb(97.532654%, 55.548096%, 34.016418%)" offset="0.945312"/><stop stop-opacity="1" stop-color="rgb(97.70813%, 55.644226%, 33.743286%)" offset="0.949219"/><stop stop-opacity="1" stop-color="rgb(97.885132%, 55.741882%, 33.47168%)" offset="0.953125"/><stop stop-opacity="1" stop-color="rgb(98.060608%, 55.838013%, 33.198547%)" offset="0.957031"/><stop stop-opacity="1" stop-color="rgb(98.23761%, 55.934143%, 32.925415%)" offset="0.960938"/><stop stop-opacity="1" stop-color="rgb(98.413086%, 56.030273%, 32.652283%)" offset="0.964844"/><stop stop-opacity="1" stop-color="rgb(98.590088%, 56.12793%, 32.380676%)" offset="0.96875"/><stop stop-opacity="1" stop-color="rgb(98.765564%, 56.22406%, 32.107544%)" offset="0.972656"/><stop stop-opacity="1" stop-color="rgb(98.942566%, 56.32019%, 31.835938%)" offset="0.976562"/><stop stop-opacity="1" stop-color="rgb(99.118042%, 56.416321%, 31.562805%)" offset="0.980469"/><stop stop-opacity="1" stop-color="rgb(99.295044%, 56.512451%, 31.289673%)" offset="0.984375"/><stop stop-opacity="1" stop-color="rgb(99.47052%, 56.608582%, 31.016541%)" offset="0.988281"/><stop stop-opacity="1" stop-color="rgb(99.645996%, 56.706238%, 30.744934%)" offset="0.992188"/><stop stop-opacity="1" stop-color="rgb(99.821472%, 56.802368%, 30.471802%)" offset="0.996094"/><stop stop-opacity="1" stop-color="rgb(99.998474%, 56.898499%, 30.200195%)" offset="1"/></linearGradient></defs><g clip-path="url(#93f49563c6)"><g clip-path="url(#918992c9a9)"><path fill="url(#8f1bd7bf6e)" d="M 5.445312 5.445312 L 5.445312 369.550781 L 369.550781 369.550781 L 369.550781 5.445312 Z M 5.445312 5.445312 " fill-rule="nonzero"/></g></g><g fill="#ffffff" fill-opacity="1"><g transform="translate(195.460203, 261.629268)"><g><path d="M 49.25 9.4375 C 44.644531 10.082031 38.53125 8.128906 30.90625 3.578125 C 25.96875 3.472656 21.691406 3.007812 18.078125 2.1875 C 14.472656 1.375 11.421875 0.226562 8.921875 -1.25 C 5.398438 -3.5 2.148438 -6.707031 -0.828125 -10.875 C -3.816406 -15.039062 -5.601562 -19.195312 -6.1875 -23.34375 C -6.625 -26.488281 -6.289062 -29.40625 -5.1875 -32.09375 C -2.644531 -38.507812 1.207031 -42.082031 6.375 -42.8125 C 10.3125 -43.351562 13.082031 -40.363281 14.6875 -33.84375 C 16.332031 -27.769531 17.660156 -22.941406 18.671875 -19.359375 C 19.691406 -15.785156 20.445312 -13.457031 20.9375 -12.375 C 23.40625 -7.101562 26.925781 -2.84375 31.5 0.40625 C 36.351562 0.757812 41.535156 0.550781 47.046875 -0.21875 C 59.179688 -1.914062 70.484375 -5.847656 80.953125 -12.015625 C 85.390625 -14.703125 89.628906 -17.984375 93.671875 -21.859375 C 97.710938 -25.742188 100.914062 -29.851562 103.28125 -34.1875 C 105.65625 -38.53125 106.582031 -42.5625 106.0625 -46.28125 C 105.320312 -51.5625 100.085938 -55.007812 90.359375 -56.625 L 59.75 -59.203125 C 53.5 -59.710938 48.3125 -61.421875 44.1875 -64.328125 C 40.0625 -67.242188 37.691406 -70.894531 37.078125 -75.28125 C 36.128906 -82.03125 39.394531 -89.363281 46.875 -97.28125 C 50.65625 -101.351562 55.238281 -105 60.625 -108.21875 C 66.019531 -111.4375 71.800781 -114.128906 77.96875 -116.296875 C 84.132812 -118.472656 90.144531 -119.972656 96 -120.796875 C 104.3125 -121.953125 111.59375 -121.648438 117.84375 -119.890625 C 124.101562 -118.140625 128.3125 -114.894531 130.46875 -110.15625 C 130.957031 -109.082031 131.296875 -107.875 131.484375 -106.53125 C 132.441406 -99.675781 129.6875 -94.421875 123.21875 -90.765625 C 119.289062 -88.503906 115.867188 -87.171875 112.953125 -86.765625 C 111.148438 -86.515625 109.695312 -86.648438 108.59375 -87.171875 C 108.332031 -87.367188 108.179688 -87.628906 108.140625 -87.953125 C 108.023438 -88.753906 109.535156 -89.425781 112.671875 -89.96875 C 114.566406 -90.351562 116.113281 -90.742188 117.3125 -91.140625 C 118.519531 -91.535156 119.390625 -91.890625 119.921875 -92.203125 C 123.878906 -95.046875 125.550781 -98.65625 124.9375 -103.03125 C 124.625 -105.28125 123.675781 -107.550781 122.09375 -109.84375 C 117.707031 -115.757812 108.550781 -117.742188 94.625 -115.796875 C 89.570312 -115.085938 84.421875 -113.820312 79.171875 -112 C 73.929688 -110.175781 69.039062 -107.882812 64.5 -105.125 C 59.957031 -102.375 56.21875 -99.195312 53.28125 -95.59375 C 48.207031 -89.382812 45.96875 -84.144531 46.5625 -79.875 C 47.019531 -76.613281 49.023438 -73.941406 52.578125 -71.859375 C 56.140625 -69.785156 61.257812 -68.582031 67.9375 -68.25 L 88.328125 -67.328125 C 96.179688 -66.941406 102.664062 -65.644531 107.78125 -63.4375 C 112.90625 -61.226562 115.875 -57.207031 116.6875 -51.375 C 117.414062 -46.195312 116.800781 -41.179688 114.84375 -36.328125 C 112.882812 -31.472656 109.988281 -26.972656 106.15625 -22.828125 C 102.320312 -18.679688 97.820312 -15.050781 92.65625 -11.9375 C 80.957031 -4.6875 66.625 0.125 49.65625 2.5 C 47.53125 2.800781 45.390625 3.039062 43.234375 3.21875 C 41.085938 3.40625 38.988281 3.53125 36.9375 3.59375 C 38.625 4.28125 40.738281 4.898438 43.28125 5.453125 C 45.820312 6.015625 48.722656 6.46875 51.984375 6.8125 C 52.328125 6.882812 52.523438 7.09375 52.578125 7.4375 C 52.710938 8.445312 51.601562 9.113281 49.25 9.4375 Z M 25.203125 -0.4375 C 21.691406 -3.382812 18.84375 -6.53125 16.65625 -9.875 C 13.394531 -15.15625 10.570312 -21.8125 8.1875 -29.84375 C 6.457031 -35.675781 5.085938 -38.519531 4.078125 -38.375 C 3.179688 -38.25 2.066406 -37.398438 0.734375 -35.828125 C -0.585938 -34.265625 -0.941406 -31.300781 -0.328125 -26.9375 C 0.867188 -18.382812 4.9375 -11.390625 11.875 -5.953125 C 15.351562 -3.222656 19.796875 -1.382812 25.203125 -0.4375 Z M 25.203125 -0.4375 "/></g></g></g><g fill="#ffffff" fill-opacity="1"><g transform="translate(59.757974, 254.384188)"><g><path d="M 36.59375 14.671875 C 15.78125 18.515625 2.753906 10.867188 -2.484375 -8.265625 C -5.585938 -19.617188 -5.3125 -32.601562 -1.65625 -47.21875 C 0.46875 -56.03125 3.734375 -64.941406 8.140625 -73.953125 C 12.554688 -82.972656 17.753906 -91.457031 23.734375 -99.40625 C 29.710938 -107.363281 36.226562 -114.148438 43.28125 -119.765625 C 50.332031 -125.390625 57.554688 -129.210938 64.953125 -131.234375 C 78.015625 -134.816406 85.863281 -131.789062 88.5 -122.15625 C 90.269531 -115.6875 90.257812 -107.953125 88.46875 -98.953125 C 86.675781 -89.941406 84.03125 -83.820312 80.53125 -80.59375 C 80.164062 -80.351562 79.71875 -80.160156 79.1875 -80.015625 C 78.800781 -79.898438 78.570312 -79.972656 78.5 -80.234375 L 82.09375 -92.734375 C 84.550781 -101.359375 85.023438 -108.4375 83.515625 -113.96875 C 82.421875 -117.9375 80.328125 -121.410156 77.234375 -124.390625 C 74.148438 -127.378906 69.90625 -128.132812 64.5 -126.65625 C 57.90625 -124.84375 51.644531 -121.132812 45.71875 -115.53125 C 39.800781 -109.9375 34.441406 -103.21875 29.640625 -95.375 C 24.835938 -87.539062 20.796875 -79.238281 17.515625 -70.46875 C 14.242188 -61.695312 12 -53.3125 10.78125 -45.3125 C 8.207031 -28.289062 8.207031 -15.09375 10.78125 -5.71875 C 14.644531 8.40625 23.769531 13.492188 38.15625 9.546875 C 51.882812 5.785156 68.070312 -8.148438 86.71875 -32.265625 C 91.019531 -37.847656 96.414062 -45.5 102.90625 -55.21875 C 109.394531 -64.945312 116.929688 -76.660156 125.515625 -90.359375 C 123.972656 -89.796875 122.039062 -89.085938 119.71875 -88.234375 C 117.394531 -87.390625 114.722656 -86.269531 111.703125 -84.875 C 110.460938 -84.25 109.269531 -83.671875 108.125 -83.140625 C 106.988281 -82.617188 105.894531 -82.21875 104.84375 -81.9375 C 102.125 -81.46875 100.828125 -81.820312 100.953125 -83 C 100.128906 -88.007812 101.960938 -91.132812 106.453125 -92.375 C 110.691406 -92.96875 114.660156 -93.628906 118.359375 -94.359375 C 122.066406 -95.085938 125.566406 -95.90625 128.859375 -96.8125 C 132.710938 -102.96875 137.726562 -111.46875 143.90625 -122.3125 C 150.09375 -133.164062 157.359375 -146.40625 165.703125 -162.03125 C 176.503906 -182.164062 183.5625 -192.6875 186.875 -193.59375 C 188.320312 -193.988281 189.40625 -192.863281 190.125 -190.21875 C 190.414062 -189.164062 190.644531 -187.8125 190.8125 -186.15625 C 190.976562 -184.5 191.085938 -182.539062 191.140625 -180.28125 C 191.203125 -174.90625 190.648438 -171.488281 189.484375 -170.03125 C 186.191406 -166.007812 183.816406 -161.347656 182.359375 -156.046875 C 180.898438 -150.742188 179.539062 -144.945312 178.28125 -138.65625 C 177.050781 -132.226562 175.890625 -126.484375 174.796875 -121.421875 C 173.703125 -116.359375 172.703125 -111.863281 171.796875 -107.9375 L 190.890625 -113.59375 C 195.640625 -114.894531 198.109375 -115.210938 198.296875 -114.546875 C 198.328125 -114.410156 198.25 -114.175781 198.0625 -113.84375 C 196.207031 -111.769531 187.066406 -107.851562 170.640625 -102.09375 C 164.910156 -74.832031 163.253906 -56.78125 165.671875 -47.9375 C 167.335938 -41.863281 170.082031 -39.347656 173.90625 -40.390625 C 175.351562 -40.785156 176.945312 -42.21875 178.6875 -44.6875 C 180.332031 -46.976562 181.414062 -48.195312 181.9375 -48.34375 C 181.863281 -48.601562 181.910156 -48.6875 182.078125 -48.59375 C 182.253906 -48.5 182.207031 -48.414062 181.9375 -48.34375 C 181.9375 -45.800781 180.582031 -43.125 177.875 -40.3125 C 175.164062 -37.5 172.03125 -35.609375 168.46875 -34.640625 C 165.164062 -33.734375 162.695312 -34.191406 161.0625 -36.015625 C 159.425781 -37.847656 158.101562 -40.613281 157.09375 -44.3125 C 153.445312 -57.644531 153.878906 -76 158.390625 -99.375 L 134.8125 -92.265625 C 121.84375 -70.128906 108.238281 -50.082031 94 -32.125 C 71.257812 -3.757812 52.125 11.835938 36.59375 14.671875 Z M 158.765625 -105 C 159.515625 -108.46875 161.171875 -114.84375 163.734375 -124.125 C 166.296875 -133.414062 169.851562 -145.570312 174.40625 -160.59375 L 136.71875 -99.1875 Z M 158.765625 -105 "/></g></g></g></svg>